<mxfile host="app.diagrams.net" modified="2022-03-24T09:06:48.606Z" agent="5.0 (Macintosh; Intel Mac OS X 10_15_7) AppleWebKit/537.36 (KHTML, like Gecko) Chrome/98.0.4758.102 Safari/537.36" etag="qzVK5sMyBOekVxN3eKr_" version="17.2.1" type="github">
  <diagram id="_sH67yYU28eRUC93fO1_" name="Page-1">
    <mxGraphModel dx="926" dy="569" grid="1" gridSize="10" guides="1" tooltips="1" connect="1" arrows="1" fold="1" page="1" pageScale="1" pageWidth="827" pageHeight="1169" math="0" shadow="0">
      <root>
        <mxCell id="0" />
        <mxCell id="1" parent="0" />
        <mxCell id="ezxfUqyR2fRxoIWs5AaG-4" style="edgeStyle=orthogonalEdgeStyle;rounded=0;orthogonalLoop=1;jettySize=auto;html=1;exitX=1;exitY=0.5;exitDx=0;exitDy=0;entryX=0;entryY=0.5;entryDx=0;entryDy=0;" edge="1" parent="1" source="ezxfUqyR2fRxoIWs5AaG-1" target="ezxfUqyR2fRxoIWs5AaG-3">
          <mxGeometry relative="1" as="geometry" />
        </mxCell>
        <mxCell id="ezxfUqyR2fRxoIWs5AaG-1" value="app复制" style="rounded=1;whiteSpace=wrap;html=1;" vertex="1" parent="1">
          <mxGeometry x="200" y="200" width="120" height="60" as="geometry" />
        </mxCell>
        <mxCell id="ezxfUqyR2fRxoIWs5AaG-7" style="edgeStyle=orthogonalEdgeStyle;rounded=0;orthogonalLoop=1;jettySize=auto;html=1;entryX=0;entryY=0.5;entryDx=0;entryDy=0;" edge="1" parent="1" source="ezxfUqyR2fRxoIWs5AaG-2" target="ezxfUqyR2fRxoIWs5AaG-1">
          <mxGeometry relative="1" as="geometry" />
        </mxCell>
        <mxCell id="ezxfUqyR2fRxoIWs5AaG-2" value="开始" style="triangle;whiteSpace=wrap;html=1;" vertex="1" parent="1">
          <mxGeometry x="110" y="190" width="40" height="80" as="geometry" />
        </mxCell>
        <mxCell id="ezxfUqyR2fRxoIWs5AaG-8" style="edgeStyle=orthogonalEdgeStyle;rounded=0;orthogonalLoop=1;jettySize=auto;html=1;exitX=1;exitY=0.5;exitDx=0;exitDy=0;entryX=0;entryY=0.5;entryDx=0;entryDy=0;" edge="1" parent="1" source="ezxfUqyR2fRxoIWs5AaG-3" target="ezxfUqyR2fRxoIWs5AaG-5">
          <mxGeometry relative="1" as="geometry" />
        </mxCell>
        <mxCell id="ezxfUqyR2fRxoIWs5AaG-3" value="同步上线单" style="rounded=1;whiteSpace=wrap;html=1;" vertex="1" parent="1">
          <mxGeometry x="370" y="200" width="120" height="60" as="geometry" />
        </mxCell>
        <mxCell id="ezxfUqyR2fRxoIWs5AaG-12" style="edgeStyle=orthogonalEdgeStyle;rounded=0;orthogonalLoop=1;jettySize=auto;html=1;exitX=1;exitY=0.5;exitDx=0;exitDy=0;entryX=0;entryY=0.5;entryDx=0;entryDy=0;" edge="1" parent="1" source="ezxfUqyR2fRxoIWs5AaG-5" target="ezxfUqyR2fRxoIWs5AaG-6">
          <mxGeometry relative="1" as="geometry" />
        </mxCell>
        <mxCell id="ezxfUqyR2fRxoIWs5AaG-5" value="更新naming（bns）" style="rounded=1;whiteSpace=wrap;html=1;" vertex="1" parent="1">
          <mxGeometry x="540" y="200" width="120" height="60" as="geometry" />
        </mxCell>
        <mxCell id="ezxfUqyR2fRxoIWs5AaG-16" style="edgeStyle=orthogonalEdgeStyle;rounded=0;orthogonalLoop=1;jettySize=auto;html=1;exitX=1;exitY=0.5;exitDx=0;exitDy=0;entryX=1;entryY=0.5;entryDx=0;entryDy=0;" edge="1" parent="1" source="ezxfUqyR2fRxoIWs5AaG-6" target="ezxfUqyR2fRxoIWs5AaG-15">
          <mxGeometry relative="1" as="geometry" />
        </mxCell>
        <mxCell id="ezxfUqyR2fRxoIWs5AaG-6" value="SD修改" style="rounded=1;whiteSpace=wrap;html=1;" vertex="1" parent="1">
          <mxGeometry x="720" y="200" width="120" height="60" as="geometry" />
        </mxCell>
        <mxCell id="ezxfUqyR2fRxoIWs5AaG-15" value="结束" style="triangle;whiteSpace=wrap;html=1;direction=west;" vertex="1" parent="1">
          <mxGeometry x="900" y="190" width="30" height="80" as="geometry" />
        </mxCell>
      </root>
    </mxGraphModel>
  </diagram>
</mxfile>
